<svg xmlns="http://www.w3.org/2000/svg" viewBox="0 0 459 659" width="459" height="659">
  <defs>
    <linearGradient id="RCTGr1" x2="1" gradientUnits="userSpaceOnUse" gradientTransform="matrix(-346.9,497.1,-470.041,-328.017,354.3,95.6)">
      <stop offset="0" stop-color="#b61413"></stop>
      <stop offset="1" stop-color="#701001"></stop>
    </linearGradient>
    <linearGradient id="RCTGr2" x2="1" gradientUnits="userSpaceOnUse" gradientTransform="matrix(-131.6,191.3,-61.611,-42.384,376.7,363.1)">
      <stop offset="0" stop-color="#008e38"></stop>
      <stop offset="1" stop-color="#036928"></stop>
    </linearGradient>
    <linearGradient id="RCTGr3" x2="1" gradientUnits="userSpaceOnUse" gradientTransform="matrix(-131.6,191.3,-161.646,-111.2,277.7,295)">
      <stop offset="0" stop-color="#008e38"></stop>
      <stop offset="1" stop-color="#036928"></stop>
    </linearGradient>
    <linearGradient id="RCTGr4" x2="1" gradientUnits="userSpaceOnUse" gradientTransform="matrix(29,45.1,-38.765,24.926,105.3,248.7)">
      <stop offset="0" stop-color="#fff"></stop>
      <stop offset="1" stop-color="#dadada"></stop>
    </linearGradient>
    <linearGradient id="RCTGr5" x2="1" gradientUnits="userSpaceOnUse" gradientTransform="matrix(27.045,-41.806,35.936,23.248,96.672,355.25)">
      <stop offset="0" stop-color="#fff"></stop>
      <stop offset="1" stop-color="#dadada"></stop>
    </linearGradient>
    <linearGradient id="RCTGr6" x2="1" gradientUnits="userSpaceOnUse" gradientTransform="matrix(-53.067,-9.885,8.499,-45.624,222.869,297.157)">
      <stop offset="0" stop-color="#fff"></stop>
      <stop offset="1" stop-color="#dadada"></stop>
    </linearGradient>
    <linearGradient id="RCTGr7" x2="1" gradientUnits="userSpaceOnUse" gradientTransform="matrix(10.819,-47.265,40.635,9.301,125.307,408.046)">
      <stop offset="0" stop-color="#fff"></stop>
      <stop offset="1" stop-color="#dadada"></stop>
    </linearGradient>
    <linearGradient id="RCTGr8" x2="1" gradientUnits="userSpaceOnUse" gradientTransform="matrix(16.173,-43.32,37.229,13.899,159.888,441.991)">
      <stop offset="0" stop-color="#fff"></stop>
      <stop offset="1" stop-color="#dadada"></stop>
    </linearGradient>
    <linearGradient id="RCTGr9" x2="1" gradientUnits="userSpaceOnUse" gradientTransform="matrix(33.141,35.204,-30.28,28.506,211.158,375.689)">
      <stop offset="0" stop-color="#fff"></stop>
      <stop offset="1" stop-color="#dadada"></stop>
    </linearGradient>
    <linearGradient id="RCTGr10" x2="1" gradientUnits="userSpaceOnUse" gradientTransform="matrix(-36.33,21.012,-18.116,-31.323,297.669,400.337)">
      <stop offset="0" stop-color="#fff"></stop>
      <stop offset="1" stop-color="#dadada"></stop>
    </linearGradient>
    <linearGradient id="RCTGr11" x2="1" gradientUnits="userSpaceOnUse" gradientTransform="matrix(-48.965,-20.951,17.991,-42.048,334.43,388.698)">
      <stop offset="0" stop-color="#fff"></stop>
      <stop offset="1" stop-color="#dadada"></stop>
    </linearGradient>
    <linearGradient id="RCTGr12" x2="1" gradientUnits="userSpaceOnUse" gradientTransform="matrix(47.008,23.956,-20.613,40.448,205.252,329.288)">
      <stop offset="0" stop-color="#fff"></stop>
      <stop offset="1" stop-color="#dadada"></stop>
    </linearGradient>
    <linearGradient id="RCTGr13" x2="1" gradientUnits="userSpaceOnUse" gradientTransform="matrix(34.234,40.327,-34.644,29.411,239.847,272.021)">
      <stop offset="0" stop-color="#fff"></stop>
      <stop offset="1" stop-color="#dadada"></stop>
    </linearGradient>
    <linearGradient id="RCTGr14" x2="1" gradientUnits="userSpaceOnUse" gradientTransform="matrix(-41.133,-36.059,31.085,-35.459,372.446,353.902)">
      <stop offset="0" stop-color="#fff"></stop>
      <stop offset="1" stop-color="#dadada"></stop>
    </linearGradient>
    <linearGradient id="RCTGr15" x2="1" gradientUnits="userSpaceOnUse" gradientTransform="matrix(-46.66,28.549,-24.511,-40.061,384.47,261.895)">
      <stop offset="0" stop-color="#fff"></stop>
      <stop offset="1" stop-color="#dadada"></stop>
    </linearGradient>
    <linearGradient id="RCTGr16" x2="1" gradientUnits="userSpaceOnUse" gradientTransform="matrix(18.321,51.599,-44.456,15.785,289.892,228.869)">
      <stop offset="0" stop-color="#fff"></stop>
      <stop offset="1" stop-color="#dadada"></stop>
    </linearGradient>
  </defs>
  <path fill="url(#RCTGr1)" d="M457.1 140.4v-1.8h-1.9c-.6 0-58.4-2-111.9-10.4a582.4 582.4 0 0 1-112.7-32.7l-.7-.3-.7.3c-.5.2-49.7 17.9-104.8 32.1A564.2 564.2 0 0 1 3.3 141.8H1.5l-.2 1.8c-.2 1.7-14.6 169.7 52.8 322.5 51.1 121.7 177.1 191.4 178.3 192.1l.9.5.9-.4c1.4-.7 143.2-68.7 198.4-259.7C468 294.2 457.1 142 457 140.5z"></path>
  <g fill="#13100d">
    <path d="m135.4 159.5 9.7 25-8.2 3.2-1.7-1.2 1.1-.4-9.1-23.4-10.2 3.9-1.7-1.2 1.1-.4-1.8-4.7 27.5-10.6-.6-1.6 1.7 1.2 2.5 6.4-10.2 3.9zM187.6 156.4c2.2 10.5-3 18.5-13.2 20.7-10.3 2.2-18.2-3-20.5-13.6-2.2-10.6 3-18.5 13.2-20.7 10.3-2.2 18.2 3 20.5 13.6zm-8.7 1.9c-1.5-7-5.4-10.2-10.4-9.1-5 1.1-7.3 5.5-5.8 12.5s5.4 10.2 10.4 9.1c5-1 7.2-5.6 5.8-12.5zM225.9 155.7l.2 4.7c0 5.7-3.7 11-14 11.7-10.4.7-14.7-4.1-15.5-9.7l-.5-4.7-1.3-18.8 7.1-.5v-1.3l1.6 1.2 1.4 20.4c0 .9 0 1.4.2 2 .5 3.5 2.6 5.2 6.4 5 3.8-.2 5.7-2.3 5.7-5.8v-2l-1.4-20.4 7.1-.5v-1.3l1.6 1.2 1.3 18.8zM259.8 171.9l-25.7-1.3-1.7-1.2h1.8l1.6-32.4 7 .4v-1.1l1.8 1.2-1.3 26.2 15.2.8v-1.1l1.8 1.2-.4 7.4zM299.8 161.5c-1.9 10.6-9.7 16.1-20 14.3-10.3-1.8-15.8-9.6-13.9-20.2 1.9-10.7 9.7-16.1 20-14.3 10.3 1.8 15.8 9.6 13.9 20.2zm-8.9-1.6c1.2-7.1-1.2-11.4-6.2-12.3-5-.9-8.8 2.4-10 9.5-1.2 7 1.2 11.4 6.2 12.3 5 .9 8.8-2.5 10-9.5zM322.2 187.6l-1.5-2 1.3.5-3.6-23.6c-.9 3.3-1.9 6.1-2.6 7.9l-4.8 13.1-8.2-3-1.5-2 2 .7 11.1-30.3 9 3.3-.2-1.5 1.5 2 4.1 26.2c.9-3.3 2.1-6.6 2.7-8.4l4.9-13.5 6.3 2.3.5-1.3 1.5 2-11.5 31.6-10.8-3.9zM407.1 219.9v-1.8h-1.9a829 829 0 0 1-87.5-8c-41.7-6.4-87.6-25-88.1-25.2l-.7-.3-.7.3c-.4.1-38.9 13.9-82 24.8a449.1 449.1 0 0 1-94.7 11h-1.8l-.2 1.8c-.1 1.3-11.5 131.2 41.3 249.4 40 94.1 138.7 148.1 139.7 148.6l.9.5.9-.4c1.1-.5 112.3-53.2 155.6-201 27.7-80.7 19.3-198.4 19.2-199.6z"></path>
  </g>
  <g fill="#2e2d2c">
    <path d="M99.4 475.8a481.4 481.4 0 0 1-40.8-110.1 473.1 473.1 0 0 0 32.3 106.1c40 94.1 138.7 148.1 139.7 148.6l.9.5.9-.4c.2-.1 5-2.4 12.9-7.2-18-9-104.4-55.5-145.8-137.5zM407.1 219.9v-1.8h-1.9l-15.1-.7c4.1 35.3 11.1 119.8-5.4 183.9a341.9 341.9 0 0 1-109.3 190.6 343.7 343.7 0 0 0 112.5-172.3c27.7-80.7 19.3-198.4 19.2-199.6z"></path>
  </g>
  <path fill="url(#RCTGr2)" d="M241.4 585.2s-10.2-169.9 116.7-191c0 0 21.5 52.6-40.6 111.6 0 0-6.9-8.8 1-52.6 0 0-23.3 3.3-77 132.1z"></path>
  <path fill="url(#RCTGr3)" d="m332.7 320.6-.2-2.4a87 87 0 0 0-39.5 11.6 197.5 197.5 0 0 1 45.7-43.4l-2.1-3c-9.7 6.6-18.8 14-27.2 22.2 5.6-15.5.1-27.3-.1-27.9l-2.2 1.1c0 .1 6.7 14.4-2.5 31.7a216.8 216.8 0 0 0-25 31.7 43 43 0 0 0-6.1-30.8l-2 1.4c10.7 15.2 4.3 35.4 4.3 35.4a235 235 0 0 0-15.1 29.3 74.4 74.4 0 0 0-10-24.7l-2.1 1.2c9.6 16.6 10.3 25.2 9.7 29.1q-6.8 16.4-11.7 34.5a33 33 0 0 0-3.9-7.3l-2 1.4c3.1 4.6 4.3 8.2 4.7 10.6-2.7 10.4-5 21.2-6.8 32.4a422 422 0 0 0-4.7 44.6 247.9 247.9 0 0 0-13.5-48.7 841.2 841.2 0 0 0-59.8-122.1c-.5-6.8-1.4-32.2 11.7-39.9l-1.2-2.1c-12.2 7.1-13.4 27.3-13.1 37.7a375 375 0 0 0-23-32.9l-2.9 2.3c5.9 7.5 11.7 15.6 17.2 24-5.5-3-13.9-4.9-25.9-1.8l.6 2.4c15.7-4.1 24.4.6 28.8 4.8a566 566 0 0 1 20.1 34.1c-7-2.9-20.7-6-35.2 5.5l1.5 1.9a31.2 31.2 0 0 1 35.7-3.8 841.2 841.2 0 0 1 18.5 36.7c-3.4-.7-9.3-.9-17.3 3.1l1.1 2.2c9.5-4.7 15.8-3 17.6-2.3 8.6 18.3 16.1 36 22.4 51.6 9.3 23 14 47.5 16.4 67.5 1.7 15.1 1.3 32.4 1.3 32.4l-2.6-3.4c-9.4-51.4-76-115.7-100.4-121.3-19.3-6.4-43-58.3-43-58.3-25.4 55.3 88.9 146.5 102.9 158.6 14 12.1 47.7 36.3 47.7 36.3h.1v-2.2c.3-4.8-.1-7.9-.1-7.9-.2-7.3-.6-17.6-1.4-31.4a395 395 0 0 1 4.3-66.7l1.7-9.6c2.3-6 8.3-19.5 18.3-24.7l-1.1-2.2a38.7 38.7 0 0 0-14.9 16.2c3.2-14.2 7.5-29.3 13.3-44.5a63.2 63.2 0 0 1 27-17.7l-.6-2.4A59.6 59.6 0 0 0 262 385a240.8 240.8 0 0 1 26.5-48.6c6-5 19.8-13.8 44.4-15.6z"></path>
  <path fill="url(#RCTGr4)" d="M93.6 267s20.5 36.8 38.5 26.6c0 0 19.8-6.6-4.1-46.5 0 0-7.2 5.7-6.7 6.9 0 0-2.5-1.6-7-2.4 0 0-2.4 3.1-2.6 8 0 0-3.4-1.8-8-2.6 0 0-1.5 5.8-.7 8.7 0 0-3.1-1.3-9.4 1.2z"></path>
  <path fill="url(#RCTGr5)" d="M116.7 358.2s23.3-31.5 7.8-42.9c0 0-13.2-14.2-37.8 21.4 0 0 7.6 3.9 8.5 3 0 0-.4 2.8.6 6.8 0 0 3.5.8 7.8-.9 0 0-.2 3.6.9 7.8 0 0 5.5-1 7.6-2.8 0 0 .1 3.1 4.6 7.5z"></path>
  <path fill="url(#RCTGr6)" d="M217.6 276s-41.1-10.4-46.2 9.9c0 0-8.8 19.1 37 29.1 0 0 .8-9.2-.4-9.7 0 0 2.9-.7 6.6-3.5 0 0-.6-3.9-4.1-7.4 0 0 3.7-1.3 7.4-4.1 0 0-3.2-5.1-5.9-6.5 0 0 3.1-1.4 5.6-7.7z"></path>
  <path fill="url(#RCTGr7)" d="M144.6 404.1s10.8-36.6-7.2-41.9c0 0-16.8-8.6-27.5 32.2 0 0 8.3 1 8.7 0 0 0 .6 2.7 2.9 6 0 0 3.5-.4 6.8-3.4 0 0 1 3.3 3.4 6.8 0 0 4.7-2.7 6.1-5.1 0 0 1.1 2.8 6.7 5.3z"></path>
  <path fill="url(#RCTGr8)" d="M178.6 440.7s14.8-33.2-1.5-40.5c0 0-14.8-10.3-30 26.9 0 0 7.7 2 8.3 1.1 0 0 .2 2.6 1.9 6.1 0 0 3.4 0 6.9-2.4 0 0 .5 3.3 2.4 6.9 0 0 4.8-2 6.4-4 0 0 .7 2.8 5.7 5.9z"></path>
  <path fill="url(#RCTGr9)" d="M203.9 393.8s24.3 29.2 38.6 17.2c0 0 16.5-9.2-11.4-40.5 0 0-5.4 6.3-4.8 7.3 0 0-2.5-1-6.6-1 0 0-1.6 3.1-.9 7.5 0 0-3.3-1-7.6-.9 0 0-.3 5.4.8 7.8 0 0-3-.6-8.1 2.6z"></path>
  <path fill="url(#RCTGr10)" d="M283.8 390.4s-29.6 14.7-22.3 29.2c0 0 4.5 15.8 36.6-1.5 0 0-4.2-5.8-5.2-5.5 0 0 1.4-1.9 2.1-5.4 0 0-2.3-2-6.2-2.3 0 0 1.5-2.6 2.3-6.2 0 0-4.5-1.4-6.8-.9 0 0 1.1-2.4-.6-7.4z"></path>
  <path fill="url(#RCTGr11)" d="M333.9 367.2s-37.4-18.8-46.6-.4c0 0-12.6 16.5 29.4 36 0 0 2.7-8.7 1.7-9.5 0 0 3 0 7.1-1.9 0 0 .2-3.9-2.4-8 0 0 3.8-.4 8.1-2.4 0 0-2-5.6-4.3-7.5 0 0 3.3-.7 7.1-6.2z"></path>
  <path fill="url(#RCTGr12)" d="M204.3 350.7s35.7 21.1 46 3.5c0 0 13.5-15.5-26.6-37.5 0 0-3.3 8.4-2.3 9.2 0 0-3-.1-7.1 1.4 0 0-.5 3.8 1.8 8.1 0 0-3.8.2-8.1 1.8 0 0 1.6 5.6 3.7 7.7 0 0-3.3.5-7.4 5.7z"></path>
  <path fill="url(#RCTGr13)" d="M230.6 291.6s24.8 33.3 41.2 21.1c0 0 18.5-9.1-10.1-45 0 0-6.3 6.5-5.7 7.7 0 0-2.7-1.3-7.1-1.5 0 0-1.9 3.3-1.5 8.2 0 0-3.6-1.3-8.2-1.5 0 0-.7 5.9.5 8.6 0 0-3.2-.9-9.1 2.4z"></path>
  <path fill="url(#RCTGr14)" d="M378.8 332.7s-30.4-30.3-45.3-15.3c0 0-17.6 12.1 17.1 44.4 0 0 5.4-7.6 4.6-8.7 0 0 2.9.9 7.5.4 0 0 1.5-3.7.3-8.6 0 0 3.8.8 8.6.2 0 0-.2-6.1-1.8-8.7 0 0 3.4.4 8.9-3.8z"></path>
  <path fill="url(#RCTGr15)" d="M366 249.5s-38.1 20.1-28.1 38.8c0 0 6.3 20.4 47.6-3.2 0 0-5.7-7.5-6.9-7 0 0 1.7-2.6 2.6-7.1 0 0-3.1-2.5-8.1-2.8 0 0 1.9-3.4 2.8-8.2 0 0-5.9-1.6-8.9-.9 0 0 1.4-3.2-1-9.6z"></path>
  <path fill="url(#RCTGr16)" d="M273.9 244.3s11.7 41.4 32.1 35.6c0 0 21.3-1.9 6.8-47.2 0 0-8.5 4-8.3 5.3 0 0-2.1-2.2-6.4-4 0 0-3.1 2.5-4.4 7.4 0 0-3-2.6-7.4-4.4 0 0-2.8 5.4-2.7 8.5 0 0-2.8-2-9.6-1z"></path>
  <g fill="#fff">
    <path d="M212.4 233.4H205c-.6-1.9-1-3.4-1.2-5.2-.3-2.9-1.5-4.5-3.2-4.6h-3.7v9.9h-6.8v-26.1h10.4c1.6 0 2.7 0 4.1.2 3.8.5 7.1 2.3 7.1 6.9 0 4.6-1.8 5.5-5.3 6.5 2.7 1 3.7 3 4.1 6.1.3 2.9.9 4.8 2 6.3zm-13-14.8h1.8c1.7-.2 3.3-.8 3.3-2.9 0-2.1-1.4-2.8-3.1-2.9H197v6h2.5zM241.5 215.9v.4h-6.8v-.4c-.6-2.8-2.3-4.1-5.1-4.1s-5.7 2.7-5.7 8.3c0 5.6 2.7 8.8 5.7 8.8s4.3-1.6 4.9-4.5v-.4h6.9v.4c-.7 6.3-5.5 9.5-12 9.5s-12.6-4.5-12.6-13.4 5.8-13.8 12.9-13.8c7.1 0 11.3 4 11.8 9.1zM260.2 212.6v20.8h-6.8v-20.8h-8.5v-5.3h23.7v5.3h-8.5zM133.7 158.3l9.7 25-8.2 3.2-9.7-25-10.2 3.9-2.5-6.4 28.5-11.1 2.5 6.4-10.2 3.9zM185.9 155.2c2.2 10.5-3 18.5-13.2 20.7-10.3 2.2-18.2-3-20.5-13.6-2.2-10.6 3-18.5 13.2-20.7 10.3-2.2 18.2 3 20.5 13.6zm-8.7 1.9c-1.5-7-5.4-10.2-10.4-9.1-5 1.1-7.3 5.5-5.8 12.5s5.4 10.2 10.4 9.1c5-1 7.2-5.6 5.8-12.5zM224.2 154.5l.2 4.7c0 5.7-3.7 11-14 11.7-10.3.7-14.7-4.1-15.5-9.7l-.5-4.7-1.3-18.8 8.8-.6 1.4 20.4c0 .9 0 1.4.2 2 .5 3.5 2.6 5.2 6.4 5 3.8-.2 5.7-2.3 5.7-5.8v-2l-1.4-20.4 8.8-.6 1.3 18.8zM258.1 170.7l-25.7-1.3 1.7-33.6 8.8.4-1.3 26.2 17 .9-.4 7.4zM298.1 160.3c-1.9 10.6-9.7 16.1-20 14.3-10.3-1.8-15.8-9.6-13.9-20.2 1.9-10.7 9.7-16.1 20-14.3 10.3 1.8 15.8 9.6 13.9 20.2zm-8.9-1.6c1.2-7.1-1.2-11.4-6.2-12.3-5-.9-8.8 2.4-10 9.5-1.2 7 1.2 11.4 6.2 12.3 5 .9 8.8-2.5 10-9.5zM320.7 185.6l-3.9-25.1c-.9 3.3-1.9 6.1-2.6 7.9l-4.8 13.1-8.2-3 11.5-31.6 10.3 3.7 4.1 26.2c.9-3.3 2.1-6.6 2.7-8.4l4.9-13.5 8.2 3-11.5 31.6-10.8-3.9z"></path>
  </g>
  <path fill="#811205" d="M184.1 125c24.3-6.6 44.5-13.9 45.4-14.2h.2c.3.1 21.7 8.9 44.8 14.2h5.8c-25-5-49.9-15.2-50.2-15.3l-.6-.2-.6.2c-1 .4-23.6 8.5-49.7 15.4h4.7z"></path>
  <g fill="#c1a443">
    <path d="m346.5 0 8.7 26.8h28.1l-22.8 16.6 8.8 26.8-22.8-16.6-22.8 16.6 8.7-26.8-22.8-16.6h28.2L346.5 0zM229.4 0l8.7 26.8h28.2l-22.8 16.6 8.7 26.8-22.8-16.6-22.8 16.6 8.7-26.8-22.8-16.6h28.2L229.4 0zM112.3 0l8.7 26.8h28.2l-22.8 16.6 8.7 26.8-22.8-16.6-22.8 16.6 8.7-26.8-22.8-16.6h28.2L112.3 0z"></path>
  </g>
</svg>